# xmcd
#
# Track frame offsets: 
#        150
#        23319
#        53427
#        73775
#        88777
#        116797
#        126605
#
# Disc length: 2035 seconds
#
# Revision: 0
# Processed by: cddbd v1.4PL0 Copyright (c) Steve Scherf et al.
# Submitted via: ExactAudioCopy v0.90b2
#
DISCID=5a07f107
DTITLE=The Outlaw Blues Band - Breaking In
DYEAR=1969
DGENRE=Blues
TTITLE0=Plastic Man
TTITLE1=Stromy Monday Blues
TTITLE2=My Baby's Left And Gone
TTITLE3=Day Said
TTITLE4=Mamo Pano Shhhh
TTITLE5=You're The Only One
TTITLE6=Deep Gully
EXTD=
EXTT0=
EXTT1=
EXTT2=
EXTT3=
EXTT4=
EXTT5=
EXTT6=
PLAYORDER=
